<svg xmlns="http://www.w3.org/2000/svg" viewBox="0 0 44 41">
  <path d="M37.073 8.976L36.927 5.9h5.286c.893 0 1.617.69 1.617 1.538 0 .85-.724 1.538-1.617 1.538h-5.14zM25.94 5.9l.044 3.076H2.117C1.224 8.976.5 8.286.5 7.438c0-.85.724-1.537 1.617-1.537H25.94z" />
  <path d="M31.435 14.087c4.007 0 7.255-3.09 7.255-6.905 0-3.813-3.248-6.905-7.255-6.905S24.18 3.37 24.18 7.182c0 3.814 3.248 6.905 7.255 6.905zm0-10.735c2.22 0 4.022 1.715 4.022 3.83 0 2.116-1.8 3.83-4.022 3.83-2.22 0-4.022-1.714-4.022-3.83 0-2.115 1.8-3.83 4.022-3.83zM37.073 35.47l-.146-3.076h5.286c.893 0 1.617.69 1.617 1.538 0 .85-.724 1.538-1.617 1.538h-5.14zM25.94 32.394l.044 3.076H2.117C1.224 35.47.5 34.78.5 33.932c0-.85.724-1.538 1.617-1.538H25.94z" />
  <path d="M31.435 40.893c4.007 0 7.255-3.092 7.255-6.905s-3.248-6.905-7.255-6.905-7.255 3.092-7.255 6.905 3.248 6.905 7.255 6.905zm0-10.735c2.22 0 4.022 1.714 4.022 3.83 0 2.115-1.8 3.83-4.022 3.83-2.22 0-4.022-1.715-4.022-3.83 0-2.116 1.8-3.83 4.022-3.83zM7.256 19.384l.146 3.075H2.117C1.224 22.46.5 21.77.5 20.92c0-.85.724-1.538 1.617-1.538h5.14zM18.39 22.46l-.044-3.076h23.867c.893 0 1.617.688 1.617 1.538 0 .85-.724 1.537-1.617 1.537H18.39z" />
  <path d="M14.52 13.524c-4.006 0-7.254 3.092-7.254 6.905 0 3.812 3.248 6.904 7.255 6.904 4.008 0 7.256-3.092 7.256-6.905 0-3.814-3.248-6.906-7.255-6.906zm0 10.735c-2.22 0-4.02-1.715-4.02-3.83 0-2.116 1.8-3.83 4.02-3.83 2.222 0 4.023 1.714 4.023 3.83 0 2.115-1.8 3.83-4.022 3.83z" />
</svg>
