<svg xmlns="http://www.w3.org/2000/svg" viewBox="0 0 88 77">
  <path d="M1.78.97C.75 1.08-.02 1.963 0 3v72c0 1.105.895 2 2 2h84c.72.01 1.392-.37 1.756-.992.363-.623.363-1.393 0-2.016C87.392 73.37 86.72 72.99 86 73h-6V29c0-1.105-.895-2-2-2H66c-.062-.003-.125-.003-.188 0-1.03.097-1.816.965-1.812 2v44H54V39c0-1.105-.895-2-2-2H40c-.062-.003-.125-.003-.188 0-1.03.097-1.816.965-1.812 2v34H28V47c0-1.105-.895-2-2-2H14c-.062-.003-.125-.003-.188 0-1.03.097-1.816.965-1.812 2v26H4V3c.012-.576-.224-1.13-.65-1.518-.424-.39-.996-.576-1.57-.513zm70.157 4c-.45.023-.88.2-1.218.5L45.78 26.562l-9.81-5.344c-.767-.42-1.716-.293-2.345.31l-15 14c-.803.76-.838 2.027-.078 2.83.76.802 2.025.837 2.828.078l13.938-13 9.718 5.312c.73.39 1.625.29 2.25-.25l26-22c.653-.547.887-1.448.585-2.243-.303-.796-1.077-1.313-1.927-1.288zM68 31h8v42h-8V31zM42 41h8v32h-8V41zm-26 8h8v24h-8V49z" />
</svg>
