<svg xmlns="http://www.w3.org/2000/svg" viewBox="0 0 31 41">
  <path d="M15.25 0C7.232 0 .568 6.232.026 14.14c-.217 3.51.92 7.123 3.25 10.11l11.378 15.71c.163.21.38.315.65.315s.542-.105.65-.315L27.28 24.25c2.33-3.04 3.467-6.6 3.25-10.162C29.934 6.232 23.27 0 15.25 0zm10.673 23.358L15.25 38.18 4.523 23.358c-2.113-2.723-3.142-5.97-2.926-9.113C2.085 8.013 7.287 1.57 15.25 1.57c7.965 0 13.166 6.443 13.6 12.675.216 3.143-.814 6.39-2.927 9.113z" />
  <circle cx="15.075" cy="16.075" r="6.075"/>
</svg>
