<?xml version="1.0" encoding="UTF-8" standalone="no"?>
<svg width="66px" height="66px" viewBox="0 0 66 66" version="1.1" xmlns="http://www.w3.org/2000/svg" xmlns:xlink="http://www.w3.org/1999/xlink">
    <!-- Generator: Sketch 44.1 (41455) - http://www.bohemiancoding.com/sketch -->
    <title>noun_991617_cc</title>
    <desc>Created with Sketch.</desc>
    <defs></defs>
    <g id="Business-dna-homepage" stroke="none" stroke-width="1" fill="none" fill-rule="evenodd">
        <g id="Artboard" transform="translate(-3.000000, -2.000000)" fill-rule="nonzero" fill="#000000">
            <g id="noun_991617_cc" transform="translate(3.000000, 2.000000)">
                <path d="M15,31 L51,31 L51,35 L15,35 L15,31 Z M66,33 C66,51.2 51.2,66 33,66 C14.8,66 0,51.2 0,33 C0,14.8 14.8,0 33,0 C51.2,0 66,14.8 66,33 Z M62,33 C62,17 49,4 33,4 C17,4 4,17 4,33 C4,49 17,62 33,62 C49,62 62,49 62,33 Z" id="Shape"></path>
            </g>
        </g>
    </g>
</svg>