<svg xmlns="http://www.w3.org/2000/svg" viewBox="0 0 76 92">
  <path d="M1 0C.476 0 0 .476 0 1v90c0 .524.476 1 1 1h74c.524 0 1-.476 1-1V27c0-.524-.476-1-1-1H56V1c0-.524-.476-1-1-1H1zm1 2h52v88H40V71c0-.524-.476-1-1-1H17c-.524 0-1 .476-1 1v19H2V2zm5 4c-.524 0-1 .476-1 1v10c0 .524.476 1 1 1h10c.524 0 1-.476 1-1V7c0-.524-.476-1-1-1H7zm16 0c-.524 0-1 .476-1 1v10c0 .524.476 1 1 1h10c.524 0 1-.476 1-1V7c0-.524-.476-1-1-1H23zm16 0c-.524 0-1 .476-1 1v10c0 .524.476 1 1 1h10c.524 0 1-.476 1-1V7c0-.524-.476-1-1-1H39zM8 8h8v8H8V8zm16 0h8v8h-8V8zm16 0h8v8h-8V8zM7 22c-.524 0-1 .476-1 1v10c0 .524.476 1 1 1h10c.524 0 1-.476 1-1V23c0-.524-.476-1-1-1H7zm16 0c-.524 0-1 .476-1 1v10c0 .524.476 1 1 1h10c.524 0 1-.476 1-1V23c0-.524-.476-1-1-1H23zm16 0c-.524 0-1 .476-1 1v10c0 .524.476 1 1 1h10c.524 0 1-.476 1-1V23c0-.524-.476-1-1-1H39zM8 24h8v8H8v-8zm16 0h8v8h-8v-8zm16 0h8v8h-8v-8zm16 4h18v62H56V28zm5 4c-.524 0-1 .476-1 1v8c0 .524.476 1 1 1h8c.524 0 1-.476 1-1v-8c0-.524-.476-1-1-1h-8zm1 2h6v6h-6v-6zM7 38c-.524 0-1 .476-1 1v10c0 .524.476 1 1 1h10c.524 0 1-.476 1-1V39c0-.524-.476-1-1-1H7zm16 0c-.524 0-1 .476-1 1v10c0 .524.476 1 1 1h10c.524 0 1-.476 1-1V39c0-.524-.476-1-1-1H23zm16 0c-.524 0-1 .476-1 1v10c0 .524.476 1 1 1h10c.524 0 1-.476 1-1V39c0-.524-.476-1-1-1H39zM8 40h8v8H8v-8zm16 0h8v8h-8v-8zm16 0h8v8h-8v-8zm21 6c-.524 0-1 .476-1 1v8c0 .524.476 1 1 1h8c.524 0 1-.476 1-1v-8c0-.524-.476-1-1-1h-8zm1 2h6v6h-6v-6zM7 54c-.524 0-1 .476-1 1v10c0 .524.476 1 1 1h10c.524 0 1-.476 1-1V55c0-.524-.476-1-1-1H7zm16 0c-.524 0-1 .476-1 1v10c0 .524.476 1 1 1h10c.524 0 1-.476 1-1V55c0-.524-.476-1-1-1H23zm16 0c-.524 0-1 .476-1 1v10c0 .524.476 1 1 1h10c.524 0 1-.476 1-1V55c0-.524-.476-1-1-1H39zM8 56h8v8H8v-8zm16 0h8v8h-8v-8zm16 0h8v8h-8v-8zm21 4c-.524 0-1 .476-1 1v8c0 .524.476 1 1 1h8c.524 0 1-.476 1-1v-8c0-.524-.476-1-1-1h-8zm1 2h6v6h-6v-6zM18 72h9v18h-9V72zm11 0h9v18h-9V72zm32 2c-.524 0-1 .476-1 1v8c0 .524.476 1 1 1h8c.524 0 1-.476 1-1v-8c0-.524-.476-1-1-1h-8zm1 2h6v6h-6v-6z" />
</svg>
