<svg xmlns="http://www.w3.org/2000/svg" viewBox="0 0 87 85">
  <path d="M79.212 83.7h-71.6c-5.9 0-6.3-5.2-6.5-8.3 0-.3 0-.7-.1-1-.4-4.2 9.5-9.6 11.4-10.4.8-.4 2.1-1 3.8-1.8 4.5-2.2 12.9-6.2 14-7.2.1-.1.2-.2.2-.4 0-.9-1.3-2.7-3-4.2-2-2-5.6-8.1-7.3-19.2-2-13.1 3.3-20.7 8.1-24.8 6.5-5.4 14.9-5.4 15.2-5.4.4 0 8.8.1 15.6 5.5 6.9 5.3 9.7 14.1 8.1 24.8-1.7 11.1-5.3 17.3-7.2 19.2-2.1 2.1-3.1 3.8-3 4.5 0 .1 0 .1.1.1 1.3.9 10.2 5.3 15 7.6 1.3.6 2.3 1.1 3 1.5.1.1 11.2 5.8 10.8 10.4 0 .3 0 .6-.1 1-.2 3-.6 8.1-6.5 8.1zM43.412 3c-.1 0-8 .1-13.8 5-6.3 5.4-8.9 13.3-7.4 23 1.6 10.6 5 16.4 6.7 18 .6.5 3.6 3.2 3.6 5.6 0 .8-.3 1.4-.9 1.9-1.3 1-7.6 4.1-14.5 7.5-1.6.8-3 1.4-3.8 1.8-4.1 1.9-10.4 6.6-10.2 8.5v1c.3 3.7.7 6.4 4.5 6.4h71.6c3.8 0 4.2-2.7 4.5-6.4 0-.4 0-.7.1-1 .2-2.1-5.6-6.4-9.7-8.5-.7-.3-1.7-.8-2.9-1.5-7-3.5-13.9-6.9-15.2-7.8-.6-.4-.9-.9-.9-1.6-.2-2 2.2-4.6 3.6-6.1 1.6-1.6 5.1-7.4 6.7-18 1.5-9.9-1.1-18.1-7.4-22.9-6.5-4.9-14.5-4.9-14.6-4.9z" />
</svg>
