<?xml version="1.0" encoding="UTF-8" standalone="no"?>
<svg width="70px" height="70px" viewBox="0 0 70 70" version="1.1" xmlns="http://www.w3.org/2000/svg" xmlns:xlink="http://www.w3.org/1999/xlink">
    <!-- Generator: Sketch 44.1 (41455) - http://www.bohemiancoding.com/sketch -->
    <title>Artboard</title>
    <desc>Created with Sketch.</desc>
    <defs></defs>
    <g id="Business-dna-homepage" stroke="none" stroke-width="1" fill="none" fill-rule="evenodd">
        <g id="Artboard" fill-rule="nonzero" fill="#000000">
            <g id="noun_1045096_cc" transform="translate(3.000000, 2.000000)">
                <path d="M50.2019375,31.28125 L34.71875,31.28125 L34.71875,15.7980625 C34.71875,14.848625 33.9494375,14.0793125 33,14.0793125 C32.0505625,14.0793125 31.28125,14.848625 31.28125,15.7980625 L31.28125,31.28125 L15.7980625,31.28125 C14.848625,31.28125 14.0793125,32.0505625 14.0793125,33 C14.0793125,33.9494375 14.848625,34.71875 15.7980625,34.71875 L31.28125,34.71875 L31.28125,50.2019375 C31.28125,51.151375 32.0505625,51.9206875 33,51.9206875 C33.9494375,51.9206875 34.71875,51.151375 34.71875,50.2019375 L34.71875,34.71875 L50.2019375,34.71875 C51.151375,34.71875 51.9206875,33.9494375 51.9206875,33 C51.9206875,32.0505625 51.1506875,31.28125 50.2019375,31.28125 Z M33,0 C14.80325,0 0,14.80325 0,33 C0,51.19675 14.80325,66 33,66 C51.19675,66 66,51.19675 66,33 C66,14.80325 51.19675,0 33,0 Z M33,62.5625 C16.699375,62.5625 3.4375,49.300625 3.4375,33 C3.4375,16.699375 16.699375,3.4375 33,3.4375 C49.300625,3.4375 62.5625,16.699375 62.5625,33 C62.5625,49.300625 49.300625,62.5625 33,62.5625 Z" id="Shape"></path>
            </g>
        </g>
    </g>
</svg>